<?xml version="1.0"?>
<svg width="900" height="1000" xmlns="http://www.w3.org/2000/svg" xmlns:svg="http://www.w3.org/2000/svg" xmlns:xlink="http://www.w3.org/1999/xlink">
 <defs>
  <filter color-interpolation-filters="sRGB" id="a">
   <feColorMatrix result="result1" type="saturate" values="0"/>
   <feComposite in="SourceGraphic" in2="result1" operator="arithmetic"/>
   <feBlend in2="SourceGraphic"/>
   <feComposite in2="SourceGraphic" operator="in"/>
  </filter>
  <path d="m-400.6,-124.52l108.89,0l0,108.89l-108.89,0l0,-108.89z" id="b"/>
  <filter color-interpolation-filters="sRGB" id="c">
   <feColorMatrix result="result1" type="saturate" values="0"/>
   <feComposite in="SourceGraphic" in2="result1" operator="arithmetic"/>
   <feBlend in2="SourceGraphic"/>
   <feComposite in2="SourceGraphic" operator="in"/>
  </filter>
 </defs>
 <g class="layer">
  <title>Lớp 1</title>
  <path d="m204,63l492,0l0,552l-492,0l0,-552z" fill="none" id="svg_1" stroke="#724932" stroke-width="7.56"/>
  <g id="svg_2" transform="matrix(1 0 0 1 0 0) matrix(0.547752 0 0 0.553612 1160.11 283.441)">
   <path d="m-1744,-400.08l892.3,0l0,992.26l-892.3,0l0,-992.26z" fill="#402421" id="svg_3" stroke-width="3.55"/>
   <g fill-rule="evenodd" id="svg_4">
    <path d="m-1301.84,-391.93c-0.35,0 -0.71,0 -1.06,0.01c1.5,143.98 -23.31,253.4 -21.81,397.38l11.72,182.38c1.34,128.63 2.68,257.26 4.02,385.88c0.35,0 0.71,0 1.06,-0.01c-0.42,-40.31 -0.84,-80.63 -1.26,-120.94c-0.52,-50.54 -11.17,-93.39 -11.69,-143.93l29.85,-467.28l-25.8,-122.13c-0.4,-39.04 15.38,-72.32 14.97,-111.36zm205.57,2.74c-0.24,23.4 -16.67,41.05 -16.91,64.45l-2.36,226.55c5.06,118.57 35.37,263.74 -3.5,335.99l6.83,288.14c-0.32,30.34 -10.04,20.18 -10.36,50.52c0.36,0 24.99,-7.68 25.35,-7.67l-29.07,-532.62c1.47,-151.9 16.28,-124.41 31.09,-425.35c-0.36,0 -0.71,-0.01 -1.07,-0.01zm245.37,0.52c-0.36,0.01 -0.71,0.01 -1.07,0.01c0.4,37.94 -15.39,70.11 -15,108.05c2.98,285.86 5.96,571.73 8.93,857.6c0.36,0 0.71,-0.01 1.07,-0.01c-0.43,-40.76 -0.85,-81.51 -1.27,-122.27l-2.2,-211.19c-0.67,-63.99 -11.45,-156.77 -12.12,-220.76c-0.5,-47.99 9.12,-67.18 8.62,-115.17l0.98,-92.18c-0.7,-67.38 12.76,-136.69 12.06,-204.08zm-592.57,0.58c-0.36,0 -0.71,0 -1.07,0.01c0.25,23.67 -18.38,95.14 -18.13,118.81l5.17,184.47l-8.82,96c0.45,42.88 11.01,114.56 11.46,157.44c0.46,44.16 0.92,88.32 1.38,132.47c0.96,92.15 1.91,184.3 2.87,276.45c0.36,0 0.71,0 1.07,-0.01c-0.25,-24.3 -0.51,-48.61 -0.76,-72.91c-0.26,-24.97 -6.59,-40.34 -6.85,-65.31c0.56,-205.41 -68.79,-410.83 1.69,-616.24c-0.72,-69.75 12.72,-141.43 11.99,-211.18zm-249.41,4.36c-0.45,43.02 -17.09,80.28 -17.53,123.3c-0.34,32 1.35,71.68 1.02,103.68c-1.15,110.71 -4.33,213.74 -5.48,324.45c-0.31,29.11 -0.61,58.23 -0.91,87.35c-0.33,31.67 -22.92,95.98 -23.25,127.65c-0.51,48.97 21.24,65.29 20.73,114.25c-0.3,28.32 -0.59,56.65 -0.89,84.97c0.36,0 0.71,0 1.07,0.01l-4.84,-535.2l11.09,-65.29c0.22,-21.11 -9.67,-59.49 -9.46,-80.6c0.85,-81.6 11.82,-145.91 12.67,-227.5c0.22,-20.94 16.62,-36.12 16.84,-57.06c-0.35,0 -0.71,-0.01 -1.06,-0.01zm663.38,-3.54c-0.42,40.71 0.45,112.23 0.02,152.93c15.32,138.27 -18.42,86.53 -19.37,145.77c-2.32,222.32 -4.63,444.63 -6.95,666.95c0.36,0 0.71,0 1.07,0.01l-15.4,-104.51c0.5,-48 11.11,-57.6 11.61,-105.6l7.69,-165.08c30.59,3.08 -8.99,-136.32 -8.43,-190.08c0.23,-142.35 5.14,-205.47 30.83,-400.38c-0.36,0 -0.71,-0.01 -1.07,-0.01zm62.73,0c-0.37,34.95 -16.92,64.13 -17.28,99.08c-0.71,67.83 -1.41,135.65 -2.12,203.48c-0.61,58.85 -11.34,88.91 -11.96,147.77l8.32,201.61l-2.44,234.19c-0.27,26.51 -0.55,53.01 -0.83,79.52c0.36,0 0.71,0 1.07,0.01c0.62,-59.8 -4.83,-110 -4.2,-169.79c2.75,-264.01 27.75,-531.86 30.5,-795.86c-0.35,0 -0.71,-0.01 -1.06,-0.01zm84.98,0c-0.33,31.73 -16.85,57.7 -17.18,89.43l0.76,128.67c-1.79,172.14 -11.68,346.2 -13.47,518.34c-0.83,79.6 4.41,149.61 3.58,229.21c0.36,0 0.71,0 1.07,0.01l1.17,-112.19c1.02,-97.9 -11.41,-189.28 -10.39,-287.18c0.63,-60.8 14.71,-128.12 15.34,-188.91c1.33,-127.71 18.85,-249.66 20.18,-377.37c-0.35,0 -0.71,-0.01 -1.06,-0.01zm-776.15,1.1c-0.36,0 -0.71,0 -1.07,0.01c0.79,75.82 -12.58,153.57 -11.79,229.4l-9.88,180.44c0.35,33.6 10.81,96 11.16,129.6c0.36,34.23 0.72,68.47 1.07,102.71c0.25,23.98 -15.68,71.01 -15.43,95c0.39,37.77 16.97,52.5 17.36,90.26c0.29,27.83 -11.56,51.83 -11.27,79.66c0.19,18.24 12.52,40.33 12.71,58.57c0.36,0 0.71,0 1.07,-0.01c-2.18,-209.24 -4.36,-418.48 -6.54,-627.72c-1.01,-96.96 -2.02,-193.92 -3.03,-290.88c-0.18,-17.6 15.82,-29.44 15.64,-47.04zm84.98,0c-0.36,0 -0.71,0 -1.07,0.01c0.57,55.03 -15.04,104.3 -14.47,159.33c0.58,55.04 1.15,110.07 1.72,165.1c0.96,92.14 20.13,195.8 21.09,287.94l-14.41,353.27c0.36,0 0.71,0 1.07,-0.01c-0.24,-22.39 -12.61,-48.62 -12.84,-71.01c-0.32,-30.08 5.44,-46.72 5.13,-76.8c-0.48,-45.43 5.12,-100.46 4.65,-145.89c-0.74,-71.03 -11.6,-170.85 -12.34,-241.87l5.99,-367.66c-0.24,-22.72 15.71,-39.69 15.48,-62.41zm62.72,0c-0.36,0 -0.71,0 -1.07,0.01c1.54,147.17 -23.23,259.8 -21.7,406.97c1.32,126.7 6.69,291.8 8,418.5c0.52,49.92 7.11,90.25 7.63,140.17c0.36,0 0.71,0 1.07,-0.01c-0.21,-20.45 -12.57,-44.74 -12.78,-65.2c-0.72,-69.11 20.82,-132.47 20.1,-201.59l-11.84,-167.04c-0.91,-87.04 -1.81,-174.08 -2.72,-261.12c-0.35,-33.92 -10.12,-58.69 -10.47,-92.6c2.68,-40.14 2.32,-65.53 8.24,-121.44c-0.21,-20.8 15.76,-35.85 15.54,-56.65zm178.05,0c-0.35,0 -0.71,0 -1.06,0.01c0.6,57.57 -14.99,109.38 -14.39,166.95c0.34,32.65 -15.51,65.29 -15.17,97.94c1.08,103.66 18.35,207.31 19.43,310.97c0.7,67.21 -4.67,144.02 -3.97,211.23c0.46,44.79 -5.14,76.15 -4.67,120.94c0.18,17.92 12.51,39.69 12.7,57.61c0.35,0 0.71,0 1.06,-0.01c-1.88,-180.45 -13.87,-389.71 -15.75,-570.16c-1.23,-118.07 7.65,-207.34 6.42,-325.41c-0.26,-25.28 15.66,-44.8 15.4,-70.07zm82.96,0c-0.36,0 -0.71,0 -1.07,0.01c0.28,26.23 -15.64,46.7 -15.36,72.93c0.3,29.43 0.61,58.86 0.92,88.28c2.61,250.87 -6.92,497.89 -4.31,748.76l12.68,55.67c0.36,0 0.71,0 1.07,-0.01c-0.62,-59.5 -7.31,-109.41 -7.93,-168.91c-0.35,-33.27 5.38,-76.13 5.03,-109.4l-12.34,-241.91c-0.61,-58.86 8.89,-88.94 8.28,-147.8c-1.05,-101.13 14.08,-196.5 13.03,-297.62zm46.53,0c-0.35,0 -0.71,0 -1.06,0.01c0.28,27.19 -15.62,48.63 -15.34,75.82l6.35,609.53c0.97,93.43 1.95,186.86 2.92,280.29c0.35,0 0.71,0 1.06,-0.01c-0.55,-53.11 -7.17,-96.62 -7.73,-149.73l-7.12,-334.03c-0.55,-52.47 9.02,-76.15 8.48,-128.61l-11.88,-134.37c-0.66,-63.37 24.98,-155.54 24.32,-218.9zm65.97,4.66c16.35,103.22 -28.91,303.13 -31.63,477.24c60.78,169.34 6.92,335.2 5.33,488.41c0.35,0 0.71,0 1.06,0.01c0.36,-34.21 0.71,-68.42 1.07,-102.63l1.78,-170.82c1.18,-113.28 2.36,-226.55 3.54,-339.83c0.5,-48.63 -5.03,-88.28 -4.53,-136.92c0.43,-41.27 6.91,-91.52 7.34,-132.79c0.3,-29.47 16.8,-53.19 17.1,-82.66c-0.35,0 -0.71,-0.01 -1.06,-0.01zm-266.27,1.1c-0.36,0 -0.71,0 -1.07,0.01c24.54,64.81 -9.32,96.53 -14.65,142l-7.19,251.5l15.77,572.14c0.36,0 0.71,0 1.07,-0.01l-1.3,-124.74c-0.47,-44.79 -17.12,-66.55 -17.59,-111.34c-0.55,-52.48 15.09,-128 14.55,-180.48c-1.04,-99.2 -0.05,-190.71 -1.08,-289.91l-4.02,-199.66c-0.23,-21.76 15.73,-37.76 15.51,-59.51zm480.74,1.09c-0.64,61.08 -25.43,116.81 -18.1,177.48c15.13,125.09 16.82,248.88 -3.85,370.5l12.04,213.11l-27.76,126.69l11.37,77.87c0.35,0 0.71,0 1.06,0.01l6.17,-592.39l3.02,-289.94c0.31,-29.69 16.8,-53.62 17.11,-83.32c-0.35,0 -0.71,-0.01 -1.06,-0.01zm-695.22,1.1c-0.35,0 -0.71,0.01 -1.06,0.01c0.4,38.29 -15.39,70.83 -14.99,109.12c0.43,40.96 17.04,97.27 17.47,138.22c1.37,131.83 -13.45,248.31 -12.07,380.14c0.4,39.03 -21.45,110.69 -21.04,149.72c0.34,32.64 22.94,32.64 23.28,65.27c0.42,41.06 0.85,82.12 1.28,123.17c0.35,0 0.71,0 1.06,-0.01l-14.82,-481.17c-0.45,-42.86 9.22,-56.93 8.77,-99.79l-0.89,-85.44c-1.06,-101.67 14.07,-197.58 13.01,-299.24z" fill="#542924" id="svg_5" opacity="0.4"/>
    <path d="m-1287.78,585.25c0.35,0 0.71,-0.01 1.06,-0.01c-1.5,-143.98 23.31,-253.41 21.81,-397.39l-11.72,-182.39c-1.34,-128.63 -2.68,-257.26 -4.02,-385.89c-0.35,0 -0.71,0.01 -1.06,0.01c0.42,40.31 0.84,80.63 1.26,120.94c0.52,50.54 11.17,93.4 11.69,143.94l-29.85,467.3l25.8,122.12c0.4,39.05 -15.38,72.33 -14.97,111.37zm-205.57,-2.74c0.24,-23.41 16.67,-41.05 16.91,-64.46l2.36,-226.55c-5.06,-118.57 -35.37,-263.75 3.5,-336l-6.83,-288.15c0.32,-30.33 10.04,-20.18 10.36,-50.52c-0.36,0 -24.99,7.68 -25.35,7.67l29.07,532.63c-1.47,151.91 -16.28,124.42 -31.09,425.37c0.36,0 0.71,0 1.07,0.01zm-245.37,-0.52c0.36,-0.01 0.71,-0.01 1.06,-0.01c-0.39,-37.94 15.4,-70.12 15.01,-108.05c-2.98,-285.88 -5.96,-571.75 -8.94,-857.63c-0.35,0.01 -0.7,0.01 -1.06,0.01c0.42,40.76 0.85,81.52 1.27,122.27l2.2,211.2c0.67,63.99 11.45,156.78 12.12,220.76c0.5,47.99 -9.12,67.19 -8.62,115.18l-0.98,92.18c0.7,67.39 -12.76,136.7 -12.06,204.09zm592.57,-0.58c0.36,0 0.71,-0.01 1.06,-0.01c-0.24,-23.67 18.39,-95.14 18.14,-118.81l-5.17,-184.48l8.82,-96c-0.45,-42.88 -11.01,-114.57 -11.46,-157.45c-0.46,-44.16 -0.92,-88.32 -1.38,-132.48c-0.96,-92.15 -1.92,-184.3 -2.88,-276.45c-0.35,0 -0.7,0.01 -1.06,0.01c0.25,24.3 0.51,48.61 0.76,72.92c0.26,24.96 6.59,40.33 6.85,65.3c-0.57,205.42 68.79,410.84 -1.7,616.26c0.73,69.76 -12.71,141.44 -11.98,211.19zm249.41,-4.36c0.45,-43.02 17.08,-80.29 17.53,-123.31c0.34,-32 -1.35,-71.68 -1.02,-103.68c1.15,-110.71 4.33,-213.74 5.48,-324.46c0.3,-29.11 0.61,-58.23 0.91,-87.35c0.33,-31.67 22.92,-95.98 23.25,-127.66c0.51,-48.96 -21.24,-65.29 -20.73,-114.25c0.3,-28.32 0.59,-56.64 0.89,-84.96c-0.36,0 -0.71,-0.01 -1.07,-0.01l4.84,535.2l-11.09,65.3c-0.22,21.11 9.67,59.49 9.45,80.6c-0.85,81.6 -11.81,145.91 -12.66,227.51c-0.22,20.94 -16.62,36.12 -16.84,57.06c0.35,0 0.71,0.01 1.06,0.01zm-663.38,3.54c0.42,-40.71 -0.45,-112.23 -0.02,-152.94c-15.32,-138.27 18.42,-86.53 19.37,-145.77c2.32,-222.32 4.63,-444.64 6.95,-666.96c-0.36,-0.01 -0.71,-0.01 -1.07,-0.02l15.4,104.52c-0.5,48 -11.11,57.6 -11.61,105.59l-7.69,165.09c-30.59,-3.08 8.99,136.33 8.43,190.09c-0.24,142.36 -5.14,205.47 -30.83,400.39c0.36,0 0.71,0.01 1.06,0.01l0.01,0zm-62.73,0c0.37,-34.95 16.92,-64.14 17.28,-99.09c0.71,-67.82 1.41,-135.65 2.12,-203.48c0.61,-58.85 11.34,-88.91 11.96,-147.77l-8.32,-201.62l2.44,-234.2c0.27,-26.5 0.55,-53.01 0.83,-79.51c-0.36,-0.01 -0.71,-0.01 -1.07,-0.02c-0.62,59.8 4.83,110 4.2,169.8c-2.75,264.01 -27.75,531.87 -30.5,795.88c0.35,0 0.71,0.01 1.06,0.01zm-84.98,0c0.33,-31.73 16.85,-57.7 17.18,-89.43l-0.76,-128.67c1.79,-172.15 11.68,-346.22 13.47,-518.37c0.83,-79.6 -4.41,-149.6 -3.58,-229.2c-0.36,-0.01 -0.71,-0.01 -1.07,-0.02l-1.17,112.19c-1.02,97.91 11.41,189.29 10.39,287.2c-0.63,60.79 -14.71,128.12 -15.34,188.91c-1.33,127.71 -18.85,249.67 -20.18,377.38c0.35,0 0.71,0.01 1.06,0.01zm776.15,-1.1c0.36,0 0.71,0 1.07,-0.01c-0.79,-75.83 12.58,-153.58 11.79,-229.4l9.88,-180.46c-0.35,-33.6 -10.81,-95.99 -11.16,-129.59c-0.36,-34.24 -0.72,-68.48 -1.07,-102.71c-0.25,-23.99 15.68,-71.02 15.43,-95.01c-0.39,-37.77 -16.97,-52.5 -17.36,-90.27c-0.29,-27.83 11.56,-51.82 11.27,-79.65c-0.19,-18.25 -12.52,-40.34 -12.71,-58.58c-0.36,0 -0.71,0.01 -1.07,0.01c2.18,209.25 4.36,418.49 6.54,627.74c1.01,96.96 2.02,193.92 3.03,290.88c0.18,17.61 -15.82,29.45 -15.64,47.05zm-84.98,0c0.36,0 0.71,0 1.07,-0.01c-0.57,-55.03 15.04,-104.3 14.47,-159.34c-0.58,-55.03 -1.15,-110.07 -1.72,-165.11c-0.96,-92.14 -20.13,-195.8 -21.09,-287.94l14.41,-353.28c-0.36,0 -0.71,0.01 -1.07,0.01c0.24,22.39 12.61,48.62 12.84,71.02c0.32,30.08 -5.44,46.72 -5.13,76.8c0.48,45.43 -5.12,100.46 -4.65,145.89c0.74,71.03 11.6,170.85 12.34,241.88l-5.99,367.67c0.24,22.72 -15.71,39.69 -15.48,62.41zm-62.72,0c0.36,0 0.71,0 1.07,-0.01c-1.54,-147.18 23.23,-259.8 21.7,-406.99c-1.32,-126.7 -6.69,-291.8 -8.01,-418.5c-0.52,-49.93 -7.11,-90.25 -7.63,-140.18c-0.35,0 -0.7,0.01 -1.06,0.01c0.21,20.45 12.57,44.75 12.78,65.2c0.72,69.12 -20.82,132.48 -20.1,201.6l11.84,167.05c0.91,87.04 1.81,174.08 2.72,261.13c0.35,33.91 10.11,58.68 10.47,92.59c-2.68,40.15 -2.32,65.54 -8.24,121.45c0.21,20.8 -15.76,35.85 -15.54,56.65zm-178.05,0c0.35,0 0.71,0 1.06,-0.01c-0.6,-57.57 14.99,-109.39 14.39,-166.96c-0.34,-32.65 15.51,-65.29 15.17,-97.94c-1.08,-103.66 -18.35,-207.32 -19.43,-310.98c-0.7,-67.21 4.67,-144.02 3.97,-211.24c-0.46,-44.79 5.14,-76.14 4.67,-120.93c-0.18,-17.93 -12.51,-39.7 -12.7,-57.62c-0.35,0 -0.71,0.01 -1.06,0.01c1.88,180.46 13.87,389.72 15.75,570.18c1.23,118.07 -7.65,207.35 -6.42,325.42c0.26,25.27 -15.66,44.79 -15.4,70.07zm-82.96,0c0.36,0 0.71,0 1.07,-0.01c-0.28,-26.23 15.64,-46.7 15.36,-72.93c-0.3,-29.43 -0.61,-58.86 -0.92,-88.29c-2.61,-250.87 6.92,-497.9 4.31,-748.77l-12.68,-55.68c-0.36,0 -0.71,0.01 -1.07,0.01c0.62,59.5 7.31,109.41 7.93,168.92c0.35,33.26 -5.38,76.13 -5.03,109.4l12.34,241.91c0.61,58.87 -8.89,88.94 -8.28,147.81c1.05,101.13 -14.08,196.5 -13.03,297.63zm-46.53,0c0.35,0 0.71,0 1.06,-0.01c-0.28,-27.19 15.62,-48.63 15.34,-75.82l-6.35,-609.56c-0.97,-93.43 -1.95,-186.86 -2.92,-280.29c-0.36,0 -0.71,0.01 -1.06,0.01c0.55,53.11 7.17,96.63 7.72,149.74l7.13,334.04c0.55,52.47 -9.02,76.14 -8.48,128.61l11.88,134.37c0.66,63.37 -24.98,155.54 -24.32,218.91zm-65.97,-4.66c-16.35,-103.23 28.91,-303.14 31.63,-477.25c-60.79,-169.35 -6.92,-335.22 -5.33,-488.43c-0.35,0 -0.71,-0.01 -1.06,-0.01c-0.36,34.21 -0.71,68.42 -1.07,102.63l-1.78,170.83c-1.18,113.28 -2.36,226.56 -3.54,339.84c-0.5,48.63 5.03,88.28 4.53,136.92c-0.43,41.27 -6.91,91.53 -7.34,132.8c-0.3,29.47 -16.8,53.19 -17.1,82.66c0.35,0 0.71,0.01 1.06,0.01zm266.27,-1.1c0.36,0 0.71,0 1.07,-0.01c-24.54,-64.82 9.32,-96.53 14.65,-142l7.19,-251.51l-15.77,-572.16c-0.36,0 -0.71,0.01 -1.07,0.01l1.3,124.75c0.47,44.79 17.12,66.54 17.59,111.33c0.55,52.49 -15.09,128.01 -14.55,180.49c1.03,99.2 0.04,190.72 1.08,289.92l4.02,199.66c0.23,21.76 -15.73,37.76 -15.51,59.52zm-480.74,-1.09c0.64,-61.08 25.43,-116.82 18.1,-177.48c-15.13,-125.1 -16.82,-248.89 3.85,-370.51l-12.04,-213.12l27.76,-126.7l-11.37,-77.87c-0.35,0 -0.71,-0.01 -1.06,-0.01l-6.17,592.41l-3.02,289.94c-0.31,29.7 -16.8,53.63 -17.11,83.33c0.35,0 0.71,0 1.06,0.01zm695.22,-1.1c0.35,0 0.71,-0.01 1.06,-0.01c-0.4,-38.3 15.39,-70.83 14.99,-109.13c-0.43,-40.95 -17.04,-97.27 -17.47,-138.22c-1.37,-131.84 13.44,-248.31 12.07,-380.15c-0.4,-39.03 21.45,-110.69 21.04,-149.72c-0.34,-32.64 -22.94,-32.64 -23.28,-65.28c-0.43,-41.06 -0.85,-82.11 -1.28,-123.17c-0.35,0 -0.71,0.01 -1.06,0.01l14.82,481.18c0.45,42.87 -9.22,56.93 -8.77,99.8l0.89,85.44c1.05,101.67 -14.07,197.58 -13.01,299.25z" fill="#472a26" id="svg_6" opacity="0.25"/>
   </g>
  </g>
  <use fill="#c98342" filter="url(#c)" height="100%" id="svg_14" transform="matrix(0.00617965 1.10666 -1.12116 0.00748919 283.471 1204.58)" width="100%" x="-243.04" xlink:href="#b" y="-80.85"/>
  <use fill="#c98342" filter="url(#a)" height="100%" id="svg_7" transform="matrix(0.00607969 1.09728 -1.10303 0.00742565 564.037 468.256)" width="100%" x="33.43" xlink:href="#b" y="171.41"/>
  <g id="svg_8" stroke="#724932" stroke-width="3.78" transform="matrix(1 0 0 1 0 0)">
   <path d="m388.63,64l121.75,121.78m-121.75,304.44l121.75,121.78" id="svg_9"/>
   <path d="m206,64l487,0m-487,60.89l487,0m-487,60.89l487,0m-487,60.89l487,0m-487,60.89l487,0m-487,60.89l487,0m-487,60.89l487,0m-487,60.89l487,0m-487,60.89l487,0m-487,60.89l487,0" id="svg_10"/>
   <path d="m206,64l0,548m60.88,-548l-0.61,243.56m61.48,-243.56l-1.22,243.56m62.09,-243.56l-0.61,244.16m61.48,-244.16l1.22,244.16m59.66,-244.16l1.22,243.56m59.66,-243.56l1.22,243.56m59.66,-243.56l0,244.16m60.88,-244.16l0,548m-427.34,-242.95l1.22,242.95" id="svg_11"/>
   <path d="m327.75,368.44l0,243.56m60.88,-243.56l0,243.56m60.88,-243.56l0,243.56m60.88,-243.56l0,243.56" id="svg_12"/>
   <path d="m571.25,368.44l0,243.56m60.88,-243.56l0,243.56m-243.5,-426.22l121.75,-121.78m-121.75,548l121.75,-121.78" id="svg_13"/>
  </g>
  <text fill="#c98342" font-family="Helvetica" font-size="24" id="svg_16" stroke="#724932" stroke-width="0" text-anchor="middle" transform="matrix(1 0 0 1 0 0) matrix(1.53666 0 0 0.948075 -98.3256 16.4966)" x="237.3" xml:space="preserve" y="185.96">x</text>
  <text fill="#c98342" font-family="Helvetica" font-size="24" id="svg_17" stroke="#724932" stroke-width="0" text-anchor="middle" transform="matrix(1 0 0 1 0 0) matrix(1.50542 0 0 1 -161.167 0)" x="527.49" xml:space="preserve" y="497.33">x</text>
  <text fill="#c98342" font-family="Helvetica" font-size="24" id="svg_18" stroke="#724932" stroke-width="0" text-anchor="middle" transform="matrix(1.50542 0 0 1 -161.167 0)" x="283.22" xml:space="preserve" y="496.61">x</text>
  <text fill="#c98342" font-family="Helvetica" font-size="24" id="svg_19" stroke="#724932" stroke-width="0" text-anchor="middle" transform="matrix(1 0 0 1 0 0) matrix(1.50542 0 0 1 -161.167 0)" x="245.36" xml:space="preserve" y="253.61">x</text>
  <text fill="#c98342" font-family="Helvetica" font-size="24" id="svg_20" stroke="#724932" stroke-width="0" text-anchor="middle" transform="matrix(1 0 0 1 0 0) matrix(1.50542 0 0 1 -161.167 0)" x="324.41" xml:space="preserve" y="253.61">x</text>
  <text fill="#c98342" font-family="Helvetica" font-size="24" id="svg_21" stroke="#724932" stroke-width="0" text-anchor="middle" transform="matrix(1 0 0 1 0 0) matrix(1.50542 0 0 1 -161.167 0)" x="406.11" xml:space="preserve" y="252.61">x</text>
  <text fill="#c98342" font-family="Helvetica" font-size="24" id="svg_22" stroke="#724932" stroke-width="0" text-anchor="middle" transform="matrix(1 0 0 1 0 0) matrix(1.50542 0 0 1 -161.167 0)" x="487.15" xml:space="preserve" y="253.61">x</text>
  <text fill="#c98342" font-family="Helvetica" font-size="24" id="svg_23" stroke="#724932" stroke-width="0" text-anchor="middle" transform="matrix(1 0 0 1 0 0) matrix(1.50542 0 0 1 -161.167 0)" x="566.2" xml:space="preserve" y="252.61">x</text>
  <text fill="#c98342" font-family="Helvetica" font-size="24" id="svg_24" stroke="#724932" stroke-width="0" text-anchor="middle" transform="matrix(1 0 0 1 0 0) matrix(1.50542 0 0 1 -161.167 0)" x="527.01" xml:space="preserve" y="191.61">x</text>
  <text fill="#c98342" font-family="Helvetica" font-size="24" id="svg_25" stroke="#724932" stroke-width="0" text-anchor="middle" transform="matrix(1 0 0 1 0 0) matrix(1.50542 0 0 1 -161.167 0)" x="245.36" xml:space="preserve" y="435.61">x</text>
  <text fill="#c98342" font-family="Helvetica" font-size="24" id="svg_26" stroke="#724932" stroke-width="0" text-anchor="middle" transform="matrix(1 0 0 1 0 0) matrix(1.50542 0 0 1 -161.167 0)" x="324.41" xml:space="preserve" y="435.61">x</text>
  <text fill="#c98342" font-family="Helvetica" font-size="24" id="svg_27" stroke="#724932" stroke-width="0" text-anchor="middle" transform="matrix(1 0 0 1 0 0) matrix(1.50542 0 0 1 -161.167 0)" x="405.45" xml:space="preserve" y="436.61">x</text>
  <text fill="#c98342" font-family="Helvetica" font-size="24" id="svg_28" stroke="#724932" stroke-width="0" text-anchor="middle" transform="matrix(1 0 0 1 0 0) matrix(1.50542 0 0 1 -161.167 0)" x="487.15" xml:space="preserve" y="435.61">x</text>
  <text fill="#c98342" font-family="Helvetica" font-size="24" id="svg_29" stroke="#724932" stroke-width="0" text-anchor="middle" transform="matrix(1 0 0 1 0 0) matrix(1.50542 0 0 1 -161.167 0)" x="566.2" xml:space="preserve" y="435.61">x</text>
 </g>
</svg>